/* XPM */
static char * C:\Users\Roberto\Documents\triumph4php\assets\auto_complete\arrow_right_xpm[] = {
"16 16 54 1",
" 	c None",
".	c #409EE9",
"+	c #3C9AE5",
"@	c #3895E0",
"#	c #98E4FF",
"$	c #338ED9",
"%	c #89D5FC",
"&	c #94E0FE",
"*	c #2D86D1",
"=	c #2E87D2",
"-	c #81CDF8",
";	c #72BEF4",
">	c #8DD9FC",
",	c #287FCA",
"'	c #89D5FA",
")	c #7DC9F6",
"!	c #7CC8F6",
"~	c #7BC7F5",
"{	c #7AC6F5",
"]	c #79C5F5",
"^	c #70BCF2",
"/	c #68B4EF",
"(	c #83CFF8",
"_	c #2277C2",
":	c #66B2EE",
"<	c #60AEEA",
"[	c #53A4E1",
"}	c #499BD8",
"|	c #4496D3",
"1	c #4193D0",
"2	c #68B8E8",
"3	c #1C6EB9",
"4	c #81CDF7",
"5	c #76C2F4",
"6	c #71C0F3",
"7	c #5BB8EE",
"8	c #49B0E8",
"9	c #45AEE7",
"0	c #43ADE6",
"a	c #35A5E3",
"b	c #299EE1",
"c	c #4DB5EB",
"d	c #1767B2",
"e	c #1666B1",
"f	c #25B5F7",
"g	c #0EABF5",
"h	c #32BAF7",
"i	c #105FAA",
"j	c #12B9FF",
"k	c #1EBCFF",
"l	c #0B58A3",
"m	c #18BAFF",
"n	c #06529D",
"o	c #023A73",
"                ",
"        .       ",
"        ++      ",
"        @#@     ",
"        $%&$    ",
" *=======-;>=   ",
" ,')!~~{]^//(,  ",
" _~:::<[}|11|2_ ",
" 34567890abbc3  ",
" deeeeeeefghe   ",
"        ijki    ",
"        lml     ",
"        nn      ",
"        o       ",
"                ",
"                "};
