/* XPM */
static char * bookmark_xpm[] = {
"16 16 47 1",
" 	c None",
".	c #E50101",
"+	c #E30101",
"@	c #FF8686",
"#	c #E10101",
"$	c #FF8484",
"%	c #FD7474",
"&	c #DE0101",
"*	c #FF8181",
"=	c #FC7171",
"-	c #FD7373",
";	c #DC0101",
">	c #FF7E7E",
",	c #FB6F6F",
"'	c #FC7070",
")	c #D90101",
"!	c #FF7B7B",
"~	c #F96C6C",
"{	c #FA6D6D",
"]	c #D50101",
"^	c #FF7878",
"/	c #F86868",
"(	c #F96A6A",
"_	c #D20101",
":	c #FF7575",
"<	c #F66565",
"[	c #F76767",
"}	c #CE0101",
"|	c #FF7171",
"1	c #F46262",
"2	c #F56464",
"3	c #CB0101",
"4	c #FF6E6E",
"5	c #F35F5F",
"6	c #F46060",
"7	c #C70101",
"8	c #FF6C6C",
"9	c #F15C5C",
"0	c #F25D5D",
"a	c #C30101",
"b	c #FF6969",
"c	c #F86262",
"d	c #F55F5F",
"e	c #BF0101",
"f	c #B60000",
"g	c #A80000",
"h	c #9C0000",
"            .   ",
"           +@+  ",
"          #$%@# ",
"         &*=-%@&",
"        ;>,'=$; ",
"       )!~{,*)  ",
"      ]^/(~>]   ",
"     _:<[/!_    ",
"    }|12<^}     ",
"   34561:3      ",
"  78905|7       ",
" abcd94a        ",
"eeeec8e         ",
"   fbf          ",
"   gg           ",
"   h            "};
