/* XPM */
static char * C:\Users\Roberto\Documents\triumph4php\assets\auto_complete\breakpoint_xpm[] = {
"16 16 87 1",
" 	c None",
".	c #037503",
"+	c #036E03",
"@	c #B3E6E6",
"#	c #399339",
"$	c #62B762",
"%	c #0D6E0D",
"&	c #3F943F",
"*	c #61B661",
"=	c #76CB76",
"-	c #036C03",
";	c #2F812F",
">	c #67B567",
",	c #71C171",
"'	c #025F02",
")	c #025202",
"!	c #3E873E",
"~	c #4C934C",
"{	c #3C813C",
"]	c #347834",
"^	c #3B803B",
"/	c #4A904A",
"(	c #3C853C",
"_	c #014301",
":	c #57A157",
"<	c #69B569",
"[	c #6EBD6E",
"}	c #357935",
"|	c #013901",
"1	c #478947",
"2	c #5A9D5A",
"3	c #65AE65",
"4	c #377B37",
"5	c #013701",
"6	c #003100",
"7	c #408340",
"8	c #549954",
"9	c #5FA95F",
"0	c #3A7E3A",
"a	c #002F00",
"b	c #002C00",
"c	c #367936",
"d	c #4E9B4E",
"e	c #59A959",
"f	c #3D843D",
"g	c #3D9BE5",
"h	c #287593",
"i	c #226122",
"j	c #489E48",
"k	c #54AC54",
"l	c #3F8D3F",
"m	c #3894DF",
"n	c #094009",
"o	c #409B40",
"p	c #4EB24E",
"q	c #409940",
"r	c #3C989E",
"s	c #328BB5",
"t	c #297BB0",
"u	c #287AB2",
"v	c #2E86D0",
"w	c #97E5FF",
"x	c #2E87D2",
"y	c #003C00",
"z	c #1C6A1C",
"A	c #47AE47",
"B	c #41A741",
"C	c #2A84AB",
"D	c #92E3FF",
"E	c #6AD5FF",
"F	c #5DD1FF",
"G	c #73D8FF",
"H	c #2379C3",
"I	c #004900",
"J	c #004700",
"K	c #196F19",
"L	c #40AA40",
"M	c #166A77",
"N	c #15659E",
"O	c #1869B3",
"P	c #186AB5",
"Q	c #14659A",
"R	c #38C5FF",
"S	c #005000",
"T	c #0D5B9E",
"U	c #0D5CA7",
"V	c #06519B",
"                ",
"     .....      ",
"    +@#$#@+     ",
"    %&*=*&%     ",
" -  ;>,,,>;  -  ",
"  ')!~{]^/()'   ",
"   _:<[}[<:_    ",
"   |1234321|    ",
" 5567890987655  ",
"a  bcdefedcbgha ",
"    ijklkji mm  ",
"   6nopqrstuvwx ",
"  y  zABCDEFFFGH",
"  I  JKLMNOPQRP ",
"       S    TU  ",
"            V   "};
