/* XPM */
static char * magnifier__exclamation_xpm[] = {
"16 16 87 1",
" 	c None",
".	c #94A3B1",
"+	c #C5D5E6",
"@	c #DFEAF4",
"#	c #D9E3ED",
"$	c #A2ACB6",
"%	c #AEC1D5",
"&	c #C4D8EB",
"*	c #E2ECF6",
"=	c #E4EDF6",
"-	c #B8C8D9",
";	c #919FAD",
">	c #BBD2E8",
",	c #D5E3F1",
"'	c #D6E4F2",
")	c #97A4B0",
"!	c #B6CBE0",
"~	c #C1D3E4",
"{	c #BED4E9",
"]	c #C8DBED",
"^	c #BCCFE1",
"/	c #CAD8E7",
"(	c #939DA8",
"_	c #BFD5EA",
":	c #DFE9F5",
"<	c #DBD693",
"[	c #D3C447",
"}	c #9EA6AD",
"|	c #C4D1DE",
"1	c #D9E6F3",
"2	c #E3EBED",
"3	c #D4C753",
"4	c #F4EEA5",
"5	c #D5C854",
"6	c #D2D7D6",
"7	c #ADADAF",
"8	c #28292B",
"9	c #91979D",
"0	c #D8D49C",
"a	c #E2D66F",
"b	c #FCF5AB",
"c	c #D5C85A",
"d	c #645A14",
"e	c #B8B8BC",
"f	c #151516",
"g	c #978403",
"h	c #E9E086",
"i	c #555555",
"j	c #EADF7E",
"k	c #BCA402",
"l	c #515153",
"m	c #C4C4CC",
"n	c #212122",
"o	c #D1BE30",
"p	c #F1E47C",
"q	c #000000",
"r	c #E7D868",
"s	c #CCB823",
"t	c #606064",
"u	c #D1D1DD",
"v	c #2E2E30",
"w	c #BCA401",
"x	c #E1D55D",
"y	c #D7D346",
"z	c #B5B475",
"A	c #D2D040",
"B	c #D1CA3B",
"C	c #DADAEA",
"D	c #3F3F43",
"E	c #C2AE15",
"F	c #E0D942",
"G	c #DDD533",
"H	c #DDD534",
"I	c #C1AC0D",
"J	c #141414",
"K	c #9C8801",
"L	c #D8C623",
"M	c #E9DB29",
"N	c #E9DA28",
"O	c #F5ED79",
"P	c #D9C71C",
"Q	c #B09901",
"R	c #9D8700",
"S	c #9E8800",
"T	c #9F8800",
"U	c #9F8900",
"V	c #A28B00",
"                ",
"        .+@#$   ",
"       %&*==*-  ",
"      ;>,====') ",
"      !>>>>>>>~ ",
"      {>>=====] ",
"      ^>======/ ",
"      (_:=<[<*} ",
"       |123456  ",
"      7890abcd  ",
"     ef  ghijk  ",
"   lmn   opqrs  ",
"  tuv   wxyzABw ",
"  CD    EFGqGHI ",
"  J    KLMNONNPQ",
"       RRRSSSTUV"};
