/* XPM */
static char * C:\Users\Roberto\Desktop\Define_Black_xpm[] = {
"12 12 3 1",
" 	c None",
".	c #808080",
"+	c #000000",
"            ",
"  .++++++.  ",
"  +      +  ",
"  + ++   +  ",
"  + + +  +  ",
"  + +  + +  ",
"  + +  + +  ",
"  + + +  +  ",
"  + ++   +  ",
"  +      +  ",
"  .++++++.  ",
"            "};
