/* XPM */
static char * magnifier_xpm[] = {
"16 16 49 1",
" 	c None",
".	c #94A3B1",
"+	c #C5D5E6",
"@	c #DFEAF4",
"#	c #D9E3ED",
"$	c #A2ACB6",
"%	c #AEC1D5",
"&	c #C4D8EB",
"*	c #E2ECF6",
"=	c #E4EDF6",
"-	c #B8C8D9",
";	c #919FAD",
">	c #BBD2E8",
",	c #D5E3F1",
"'	c #D6E4F2",
")	c #97A4B0",
"!	c #B6CBE0",
"~	c #C1D3E4",
"{	c #BED4E9",
"]	c #C8DBED",
"^	c #BCCFE1",
"/	c #CAD8E7",
"(	c #939DA8",
"_	c #BFD5EA",
":	c #DFE9F5",
"<	c #9EA6AD",
"[	c #C4D1DE",
"}	c #D9E6F3",
"|	c #E6EFF7",
"1	c #D3D9DF",
"2	c #ADADAF",
"3	c #28292B",
"4	c #91979D",
"5	c #E3E8EE",
"6	c #EDF3F9",
"7	c #E5EAEF",
"8	c #9EA0A3",
"9	c #B8B8BC",
"0	c #151516",
"a	c #040404",
"b	c #515153",
"c	c #C4C4CC",
"d	c #212122",
"e	c #606064",
"f	c #D1D1DD",
"g	c #2E2E30",
"h	c #DADAEA",
"i	c #3F3F43",
"j	c #141414",
"                ",
"        .+@#$   ",
"       %&*==*-  ",
"      ;>,====') ",
"      !>>>>>>>~ ",
"      {>>=====] ",
"      ^>======/ ",
"      (_:====*< ",
"       [}===|1  ",
"      2345678   ",
"     90   a     ",
"   bcd          ",
"  efg           ",
"  hi            ",
"  j             ",
"                "};
